font.ufo
<glyph name="grave" format="1">
	<unicode hex="0060"/>
	<advance width="400"/>
	<outline>
		<contour>
			<point x="264" y="576" type="line"/>
			<point x="235" y="623"/>
			<point x="206" y="670"/>
			<point x="175" y="717" type="curve" smooth="yes"/>
			<point x="156" y="747"/>
			<point x="139" y="757"/>
			<point x="122" y="757" type="curve" smooth="yes"/>
			<point x="103" y="757"/>
			<point x="85" y="745"/>
			<point x="85" y="720" type="curve" smooth="yes"/>
			<point x="85" y="707"/>
			<point x="90" y="692"/>
			<point x="117" y="667" type="curve" smooth="yes"/>
			<point x="157" y="630"/>
			<point x="197" y="594"/>
			<point x="239" y="557" type="curve"/>
		</contour>
	</outline>
</glyph>
<glyph name="acute" format="1">
	<unicode hex="00B4"/>
	<advance width="400"/>
	<outline>
		<contour>
			<point x="132" y="576" type="curve"/>
			<point x="157" y="557" type="line"/>
			<point x="199" y="594"/>
			<point x="239" y="630"/>
			<point x="279" y="667" type="curve" smooth="yes"/>
			<point x="306" y="692"/>
			<point x="311" y="707"/>
			<point x="311" y="720" type="curve" smooth="yes"/>
			<point x="311" y="745"/>
			<point x="293" y="757"/>
			<point x="274" y="757" type="curve" smooth="yes"/>
			<point x="257" y="757"/>
			<point x="240" y="747"/>
			<point x="221" y="717" type="curve" smooth="yes"/>
			<point x="190" y="670"/>
			<point x="161" y="623"/>
		</contour>
	</outline>
</glyph>
<glyph name="onequarter" format="1">
	<unicode hex="00BC"/>
	<advance width="860"/>
	<outline>
		<contour>
			<point x="480" y="101" type="line"/>
			<point x="778" y="101" type="line"/>
			<point x="778" y="158" type="line"/>
			<point x="510" y="158" type="line"/>
			<point x="519" y="144" type="line"/>
			<point x="665" y="353" type="line"/>
			<point x="651" y="353" type="line"/>
			<point x="651" y="0" type="line"/>
			<point x="714" y="0" type="line"/>
			<point x="714" y="403" type="line"/>
			<point x="668" y="403" type="line"/>
			<point x="480" y="147" type="line"/>
		</contour>
		<component base="fraction" xOffset="385"/>
		<component base="one.sups" xOffset="1" yOffset="-172"/>
	</outline>
</glyph>
<glyph name="threequarters" format="1">
	<unicode hex="00BE"/>
	<advance width="860"/>
	<outline>
		<contour>
			<point x="489" y="101" type="line"/>
			<point x="787" y="101" type="line"/>
			<point x="787" y="158" type="line"/>
			<point x="519" y="158" type="line"/>
			<point x="528" y="144" type="line"/>
			<point x="674" y="353" type="line"/>
			<point x="660" y="353" type="line"/>
			<point x="660" y="0" type="line"/>
			<point x="723" y="0" type="line"/>
			<point x="723" y="403" type="line"/>
			<point x="677" y="403" type="line"/>
			<point x="489" y="147" type="line"/>
		</contour>
		<component base="fraction" xOffset="394"/>
		<component base="three.sups" xOffset="33" yOffset="-172"/>
	</outline>
</glyph>
<glyph name="Agrave" format="1">
	<unicode hex="00C0"/>
	<advance width="663"/>
	<outline>
		<contour>
			<point x="407" y="746" type="line"/>
			<point x="377" y="777"/>
			<point x="346" y="808"/>
			<point x="314" y="839" type="curve" smooth="yes"/>
			<point x="286" y="867"/>
			<point x="269" y="877"/>
			<point x="252" y="877" type="curve" smooth="yes"/>
			<point x="232" y="877"/>
			<point x="215" y="864"/>
			<point x="215" y="844" type="curve" smooth="yes"/>
			<point x="215" y="826"/>
			<point x="228" y="809"/>
			<point x="265" y="789" type="curve" smooth="yes"/>
			<point x="305" y="767"/>
			<point x="347" y="744"/>
			<point x="389" y="722" type="curve"/>
		</contour>
		<component base="A"/>
	</outline>
</glyph>
<glyph name="Aacute" format="1">
	<unicode hex="00C1"/>
	<advance width="663"/>
	<outline>
		<contour>
			<point x="255" y="746" type="curve"/>
			<point x="273" y="722" type="line"/>
			<point x="314" y="743"/>
			<point x="356" y="766"/>
			<point x="397" y="789" type="curve" smooth="yes"/>
			<point x="434" y="810"/>
			<point x="447" y="826"/>
			<point x="447" y="844" type="curve" smooth="yes"/>
			<point x="447" y="864"/>
			<point x="430" y="877"/>
			<point x="410" y="877" type="curve" smooth="yes"/>
			<point x="393" y="877"/>
			<point x="376" y="867"/>
			<point x="348" y="839" type="curve" smooth="yes"/>
			<point x="317" y="809"/>
			<point x="286" y="778"/>
		</contour>
		<component base="A"/>
	</outline>
</glyph>
<glyph name="Atilde" format="1">
	<unicode hex="00C3"/>
	<advance width="663"/>
	<outline>
		<contour>
			<point x="151" y="735" type="curve"/>
			<point x="180" y="726" type="line"/>
			<point x="196" y="776"/>
			<point x="216" y="807"/>
			<point x="249" y="807" type="curve" smooth="yes"/>
			<point x="279" y="807"/>
			<point x="300" y="779"/>
			<point x="325" y="758" type="curve" smooth="yes"/>
			<point x="347" y="740"/>
			<point x="370" y="724"/>
			<point x="407" y="724" type="curve" smooth="yes"/>
			<point x="469" y="724"/>
			<point x="498" y="775"/>
			<point x="511" y="852" type="curve"/>
			<point x="482" y="861" type="line"/>
			<point x="466" y="811"/>
			<point x="447" y="780"/>
			<point x="413" y="780" type="curve" smooth="yes"/>
			<point x="383" y="780"/>
			<point x="362" y="808"/>
			<point x="337" y="829" type="curve" smooth="yes"/>
			<point x="314" y="847"/>
			<point x="292" y="863"/>
			<point x="255" y="863" type="curve" smooth="yes"/>
			<point x="194" y="863"/>
			<point x="163" y="812"/>
		</contour>
		<component base="A"/>
	</outline>
</glyph>
<glyph name="Ecircumflex" format="1">
	<unicode hex="00CA"/>
	<advance width="604"/>
	<outline>
		<contour>
			<point x="358" y="855" type="line"/>
			<point x="326" y="855" type="line"/>
			<point x="196" y="742" type="line"/>
			<point x="215" y="718" type="line"/>
			<point x="384" y="815" type="line"/>
			<point x="300" y="815" type="line"/>
			<point x="469" y="718" type="line"/>
			<point x="488" y="742" type="line"/>
		</contour>
		<component base="E"/>
	</outline>
</glyph>
<glyph name="Edieresis" format="1">
	<unicode hex="00CB"/>
	<advance width="604"/>
	<outline>
		<contour>
			<point x="215" y="746" type="curve" smooth="yes"/>
			<point x="246" y="746"/>
			<point x="271" y="769"/>
			<point x="271" y="800" type="curve" smooth="yes"/>
			<point x="271" y="831"/>
			<point x="246" y="854"/>
			<point x="215" y="854" type="curve" smooth="yes"/>
			<point x="184" y="854"/>
			<point x="158" y="831"/>
			<point x="158" y="800" type="curve" smooth="yes"/>
			<point x="158" y="769"/>
			<point x="184" y="746"/>
		</contour>
		<contour>
			<point x="436" y="746" type="curve" smooth="yes"/>
			<point x="467" y="746"/>
			<point x="493" y="769"/>
			<point x="493" y="800" type="curve" smooth="yes"/>
			<point x="493" y="831"/>
			<point x="467" y="854"/>
			<point x="436" y="854" type="curve" smooth="yes"/>
			<point x="405" y="854"/>
			<point x="380" y="831"/>
			<point x="380" y="800" type="curve" smooth="yes"/>
			<point x="380" y="769"/>
			<point x="405" y="746"/>
		</contour>
		<component base="E"/>
	</outline>
</glyph>
<glyph name="Igrave" format="1">
	<unicode hex="00CC"/>
	<advance width="370"/>
	<outline>
		<contour>
			<point x="261" y="746" type="line"/>
			<point x="231" y="777"/>
			<point x="200" y="808"/>
			<point x="168" y="839" type="curve" smooth="yes"/>
			<point x="140" y="867"/>
			<point x="123" y="877"/>
			<point x="106" y="877" type="curve" smooth="yes"/>
			<point x="86" y="877"/>
			<point x="69" y="864"/>
			<point x="69" y="844" type="curve" smooth="yes"/>
			<point x="69" y="826"/>
			<point x="82" y="809"/>
			<point x="119" y="789" type="curve" smooth="yes"/>
			<point x="159" y="767"/>
			<point x="201" y="744"/>
			<point x="243" y="722" type="curve"/>
		</contour>
		<component base="I"/>
	</outline>
</glyph>
<glyph name="Iacute" format="1">
	<unicode hex="00CD"/>
	<advance width="370"/>
	<outline>
		<contour>
			<point x="129" y="746" type="curve"/>
			<point x="147" y="722" type="line"/>
			<point x="188" y="743"/>
			<point x="230" y="766"/>
			<point x="271" y="789" type="curve" smooth="yes"/>
			<point x="308" y="810"/>
			<point x="321" y="826"/>
			<point x="321" y="844" type="curve" smooth="yes"/>
			<point x="321" y="864"/>
			<point x="304" y="877"/>
			<point x="284" y="877" type="curve" smooth="yes"/>
			<point x="267" y="877"/>
			<point x="250" y="867"/>
			<point x="222" y="839" type="curve" smooth="yes"/>
			<point x="191" y="809"/>
			<point x="160" y="778"/>
		</contour>
		<component base="I"/>
	</outline>
</glyph>
<glyph name="Idieresis" format="1">
	<unicode hex="00CF"/>
	<advance width="370"/>
	<outline>
		<contour>
			<point x="74" y="746" type="curve" smooth="yes"/>
			<point x="105" y="746"/>
			<point x="130" y="769"/>
			<point x="130" y="800" type="curve" smooth="yes"/>
			<point x="130" y="831"/>
			<point x="105" y="854"/>
			<point x="74" y="854" type="curve" smooth="yes"/>
			<point x="43" y="854"/>
			<point x="17" y="831"/>
			<point x="17" y="800" type="curve" smooth="yes"/>
			<point x="17" y="769"/>
			<point x="43" y="746"/>
		</contour>
		<contour>
			<point x="295" y="746" type="curve" smooth="yes"/>
			<point x="326" y="746"/>
			<point x="352" y="769"/>
			<point x="352" y="800" type="curve" smooth="yes"/>
			<point x="352" y="831"/>
			<point x="326" y="854"/>
			<point x="295" y="854" type="curve" smooth="yes"/>
			<point x="264" y="854"/>
			<point x="239" y="831"/>
			<point x="239" y="800" type="curve" smooth="yes"/>
			<point x="239" y="769"/>
			<point x="264" y="746"/>
		</contour>
		<component base="I"/>
	</outline>
</glyph>
<glyph name="Ntilde" format="1">
	<unicode hex="00D1"/>
	<advance width="735"/>
	<outline>
		<contour>
			<point x="197" y="725" type="curve"/>
			<point x="226" y="716" type="line"/>
			<point x="242" y="766"/>
			<point x="262" y="797"/>
			<point x="295" y="797" type="curve" smooth="yes"/>
			<point x="325" y="797"/>
			<point x="346" y="769"/>
			<point x="371" y="748" type="curve" smooth="yes"/>
			<point x="393" y="730"/>
			<point x="416" y="714"/>
			<point x="453" y="714" type="curve" smooth="yes"/>
			<point x="515" y="714"/>
			<point x="544" y="765"/>
			<point x="557" y="842" type="curve"/>
			<point x="528" y="851" type="line"/>
			<point x="512" y="801"/>
			<point x="493" y="770"/>
			<point x="459" y="770" type="curve" smooth="yes"/>
			<point x="429" y="770"/>
			<point x="408" y="798"/>
			<point x="383" y="819" type="curve" smooth="yes"/>
			<point x="360" y="837"/>
			<point x="338" y="853"/>
			<point x="301" y="853" type="curve" smooth="yes"/>
			<point x="240" y="853"/>
			<point x="209" y="802"/>
		</contour>
		<component base="N"/>
	</outline>
</glyph>
<glyph name="Ograve" format="1">
	<unicode hex="00D2"/>
	<advance width="707"/>
	<outline>
		<contour>
			<point x="429" y="746" type="line"/>
			<point x="399" y="777"/>
			<point x="368" y="808"/>
			<point x="336" y="839" type="curve" smooth="yes"/>
			<point x="308" y="867"/>
			<point x="291" y="877"/>
			<point x="274" y="877" type="curve" smooth="yes"/>
			<point x="254" y="877"/>
			<point x="237" y="864"/>
			<point x="237" y="844" type="curve" smooth="yes"/>
			<point x="237" y="826"/>
			<point x="250" y="809"/>
			<point x="287" y="789" type="curve" smooth="yes"/>
			<point x="327" y="767"/>
			<point x="369" y="744"/>
			<point x="411" y="722" type="curve"/>
		</contour>
		<component base="O"/>
	</outline>
</glyph>
<glyph name="Oacute" format="1">
	<unicode hex="00D3"/>
	<advance width="707"/>
	<outline>
		<contour>
			<point x="298" y="746" type="curve"/>
			<point x="316" y="722" type="line"/>
			<point x="357" y="743"/>
			<point x="399" y="766"/>
			<point x="440" y="789" type="curve" smooth="yes"/>
			<point x="477" y="810"/>
			<point x="490" y="826"/>
			<point x="490" y="844" type="curve" smooth="yes"/>
			<point x="490" y="864"/>
			<point x="473" y="877"/>
			<point x="453" y="877" type="curve" smooth="yes"/>
			<point x="436" y="877"/>
			<point x="419" y="867"/>
			<point x="391" y="839" type="curve" smooth="yes"/>
			<point x="360" y="809"/>
			<point x="329" y="778"/>
		</contour>
		<component base="O"/>
	</outline>
</glyph>
<glyph name="Otilde" format="1">
	<unicode hex="00D5"/>
	<advance width="707"/>
	<outline>
		<contour>
			<point x="174" y="735" type="curve"/>
			<point x="203" y="726" type="line"/>
			<point x="219" y="776"/>
			<point x="239" y="807"/>
			<point x="272" y="807" type="curve" smooth="yes"/>
			<point x="302" y="807"/>
			<point x="323" y="779"/>
			<point x="348" y="758" type="curve" smooth="yes"/>
			<point x="370" y="740"/>
			<point x="393" y="724"/>
			<point x="430" y="724" type="curve" smooth="yes"/>
			<point x="492" y="724"/>
			<point x="521" y="775"/>
			<point x="534" y="852" type="curve"/>
			<point x="505" y="861" type="line"/>
			<point x="489" y="811"/>
			<point x="470" y="780"/>
			<point x="436" y="780" type="curve" smooth="yes"/>
			<point x="406" y="780"/>
			<point x="385" y="808"/>
			<point x="360" y="829" type="curve" smooth="yes"/>
			<point x="337" y="847"/>
			<point x="315" y="863"/>
			<point x="278" y="863" type="curve" smooth="yes"/>
			<point x="217" y="863"/>
			<point x="186" y="812"/>
		</contour>
		<component base="O"/>
	</outline>
</glyph>
<glyph name="Odieresis" format="1">
	<unicode hex="00D6"/>
	<advance width="707"/>
	<outline>
		<contour>
			<point x="243" y="746" type="curve" smooth="yes"/>
			<point x="274" y="746"/>
			<point x="299" y="769"/>
			<point x="299" y="800" type="curve" smooth="yes"/>
			<point x="299" y="831"/>
			<point x="274" y="854"/>
			<point x="243" y="854" type="curve" smooth="yes"/>
			<point x="212" y="854"/>
			<point x="186" y="831"/>
			<point x="186" y="800" type="curve" smooth="yes"/>
			<point x="186" y="769"/>
			<point x="212" y="746"/>
		</contour>
		<contour>
			<point x="464" y="746" type="curve" smooth="yes"/>
			<point x="495" y="746"/>
			<point x="521" y="769"/>
			<point x="521" y="800" type="curve" smooth="yes"/>
			<point x="521" y="831"/>
			<point x="495" y="854"/>
			<point x="464" y="854" type="curve" smooth="yes"/>
			<point x="433" y="854"/>
			<point x="408" y="831"/>
			<point x="408" y="800" type="curve" smooth="yes"/>
			<point x="408" y="769"/>
			<point x="433" y="746"/>
		</contour>
		<component base="O"/>
	</outline>
</glyph>
<glyph name="Ugrave" format="1">
	<unicode hex="00D9"/>
	<advance width="727"/>
	<outline>
		<contour>
			<point x="439" y="736" type="line"/>
			<point x="409" y="767"/>
			<point x="378" y="798"/>
			<point x="346" y="829" type="curve" smooth="yes"/>
			<point x="318" y="857"/>
			<point x="301" y="867"/>
			<point x="284" y="867" type="curve" smooth="yes"/>
			<point x="264" y="867"/>
			<point x="247" y="854"/>
			<point x="247" y="834" type="curve" smooth="yes"/>
			<point x="247" y="816"/>
			<point x="260" y="799"/>
			<point x="297" y="779" type="curve" smooth="yes"/>
			<point x="337" y="757"/>
			<point x="379" y="734"/>
			<point x="421" y="712" type="curve"/>
		</contour>
		<component base="U"/>
	</outline>
</glyph>
<glyph name="Uacute" format="1">
	<unicode hex="00DA"/>
	<advance width="727"/>
	<outline>
		<contour>
			<point x="317" y="736" type="curve"/>
			<point x="335" y="712" type="line"/>
			<point x="376" y="733"/>
			<point x="418" y="756"/>
			<point x="459" y="779" type="curve" smooth="yes"/>
			<point x="496" y="800"/>
			<point x="509" y="816"/>
			<point x="509" y="834" type="curve" smooth="yes"/>
			<point x="509" y="854"/>
			<point x="492" y="867"/>
			<point x="472" y="867" type="curve" smooth="yes"/>
			<point x="455" y="867"/>
			<point x="438" y="857"/>
			<point x="410" y="829" type="curve" smooth="yes"/>
			<point x="379" y="799"/>
			<point x="348" y="768"/>
		</contour>
		<component base="U"/>
	</outline>
</glyph>
<glyph name="Yacute" format="1">
	<unicode hex="00DD"/>
	<advance width="633"/>
	<outline>
		<contour>
			<point x="295" y="736" type="curve"/>
			<point x="313" y="712" type="line"/>
			<point x="354" y="733"/>
			<point x="396" y="756"/>
			<point x="437" y="779" type="curve" smooth="yes"/>
			<point x="474" y="800"/>
			<point x="487" y="816"/>
			<point x="487" y="834" type="curve" smooth="yes"/>
			<point x="487" y="854"/>
			<point x="470" y="867"/>
			<point x="450" y="867" type="curve" smooth="yes"/>
			<point x="433" y="867"/>
			<point x="416" y="857"/>
			<point x="388" y="829" type="curve" smooth="yes"/>
			<point x="357" y="799"/>
			<point x="326" y="768"/>
		</contour>
		<component base="Y"/>
	</outline>
</glyph>
<glyph name="agrave" format="1">
	<unicode hex="00E0"/>
	<advance width="508"/>
	<outline>
		<contour>
			<point x="320" y="576" type="line"/>
			<point x="291" y="623"/>
			<point x="262" y="670"/>
			<point x="231" y="717" type="curve" smooth="yes"/>
			<point x="212" y="747"/>
			<point x="195" y="757"/>
			<point x="178" y="757" type="curve" smooth="yes"/>
			<point x="159" y="757"/>
			<point x="141" y="745"/>
			<point x="141" y="720" type="curve" smooth="yes"/>
			<point x="141" y="707"/>
			<point x="146" y="692"/>
			<point x="173" y="667" type="curve" smooth="yes"/>
			<point x="213" y="630"/>
			<point x="253" y="594"/>
			<point x="295" y="557" type="curve"/>
		</contour>
		<component base="a"/>
	</outline>
</glyph>
<glyph name="aacute" format="1">
	<unicode hex="00E1"/>
	<advance width="508"/>
	<outline>
		<contour>
			<point x="210" y="576" type="curve"/>
			<point x="235" y="557" type="line"/>
			<point x="277" y="594"/>
			<point x="317" y="630"/>
			<point x="357" y="667" type="curve" smooth="yes"/>
			<point x="384" y="692"/>
			<point x="389" y="707"/>
			<point x="389" y="720" type="curve" smooth="yes"/>
			<point x="389" y="745"/>
			<point x="371" y="757"/>
			<point x="352" y="757" type="curve" smooth="yes"/>
			<point x="335" y="757"/>
			<point x="318" y="747"/>
			<point x="299" y="717" type="curve" smooth="yes"/>
			<point x="268" y="670"/>
			<point x="239" y="623"/>
		</contour>
		<component base="a"/>
	</outline>
</glyph>
<glyph name="acircumflex" format="1">
	<unicode hex="00E2"/>
	<advance width="508"/>
	<outline>
		<contour>
			<point x="376" y="546" type="line"/>
			<point x="399" y="567" type="line"/>
			<point x="267" y="743" type="line"/>
			<point x="235" y="743" type="line"/>
			<point x="103" y="567" type="line"/>
			<point x="126" y="546" type="line"/>
			<point x="293" y="699" type="line"/>
			<point x="209" y="699" type="line"/>
		</contour>
		<component base="a"/>
	</outline>
</glyph>
<glyph name="atilde" format="1">
	<unicode hex="00E3"/>
	<advance width="508"/>
	<outline>
		<contour>
			<point x="80" y="586" type="curve"/>
			<point x="106" y="577" type="line"/>
			<point x="120" y="627"/>
			<point x="138" y="658"/>
			<point x="168" y="658" type="curve" smooth="yes"/>
			<point x="195" y="658"/>
			<point x="214" y="630"/>
			<point x="237" y="609" type="curve" smooth="yes"/>
			<point x="256" y="591"/>
			<point x="277" y="575"/>
			<point x="310" y="575" type="curve" smooth="yes"/>
			<point x="366" y="575"/>
			<point x="392" y="626"/>
			<point x="404" y="703" type="curve"/>
			<point x="378" y="712" type="line"/>
			<point x="364" y="662"/>
			<point x="346" y="631"/>
			<point x="316" y="631" type="curve" smooth="yes"/>
			<point x="289" y="631"/>
			<point x="270" y="659"/>
			<point x="247" y="680" type="curve" smooth="yes"/>
			<point x="227" y="698"/>
			<point x="207" y="714"/>
			<point x="174" y="714" type="curve" smooth="yes"/>
			<point x="119" y="714"/>
			<point x="91" y="663"/>
		</contour>
		<component base="a"/>
	</outline>
</glyph>
<glyph name="adieresis" format="1">
	<unicode hex="00E4"/>
	<advance width="508"/>
	<outline>
		<contour>
			<point x="353" y="597" type="curve" smooth="yes"/>
			<point x="385" y="597"/>
			<point x="411" y="621"/>
			<point x="411" y="653" type="curve" smooth="yes"/>
			<point x="411" y="685"/>
			<point x="385" y="709"/>
			<point x="353" y="709" type="curve" smooth="yes"/>
			<point x="321" y="709"/>
			<point x="294" y="685"/>
			<point x="294" y="653" type="curve" smooth="yes"/>
			<point x="294" y="621"/>
			<point x="321" y="597"/>
		</contour>
		<contour>
			<point x="145" y="597" type="curve" smooth="yes"/>
			<point x="177" y="597"/>
			<point x="204" y="621"/>
			<point x="204" y="653" type="curve" smooth="yes"/>
			<point x="204" y="685"/>
			<point x="177" y="709"/>
			<point x="145" y="709" type="curve" smooth="yes"/>
			<point x="113" y="709"/>
			<point x="87" y="685"/>
			<point x="87" y="653" type="curve" smooth="yes"/>
			<point x="87" y="621"/>
			<point x="113" y="597"/>
		</contour>
		<component base="a"/>
	</outline>
</glyph>
<glyph name="eacute" format="1">
	<unicode hex="00E9"/>
	<advance width="509"/>
	<outline>
		<contour>
			<point x="216" y="576" type="curve"/>
			<point x="241" y="557" type="line"/>
			<point x="283" y="594"/>
			<point x="323" y="630"/>
			<point x="363" y="667" type="curve" smooth="yes"/>
			<point x="390" y="692"/>
			<point x="395" y="707"/>
			<point x="395" y="720" type="curve" smooth="yes"/>
			<point x="395" y="745"/>
			<point x="377" y="757"/>
			<point x="358" y="757" type="curve" smooth="yes"/>
			<point x="341" y="757"/>
			<point x="324" y="747"/>
			<point x="305" y="717" type="curve" smooth="yes"/>
			<point x="274" y="670"/>
			<point x="245" y="623"/>
		</contour>
		<component base="e"/>
	</outline>
</glyph>
<glyph name="ecircumflex" format="1">
	<unicode hex="00EA"/>
	<advance width="509"/>
	<outline>
		<contour>
			<point x="395" y="546" type="line"/>
			<point x="418" y="567" type="line"/>
			<point x="286" y="743" type="line"/>
			<point x="254" y="743" type="line"/>
			<point x="122" y="567" type="line"/>
			<point x="145" y="546" type="line"/>
			<point x="312" y="699" type="line"/>
			<point x="228" y="699" type="line"/>
		</contour>
		<component base="e"/>
	</outline>
</glyph>
<glyph name="igrave" format="1">
	<unicode hex="00EC"/>
	<advance width="297"/>
	<outline>
		<contour>
			<point x="205" y="576" type="line"/>
			<point x="176" y="623"/>
			<point x="147" y="670"/>
			<point x="116" y="717" type="curve" smooth="yes"/>
			<point x="97" y="747"/>
			<point x="80" y="757"/>
			<point x="63" y="757" type="curve" smooth="yes"/>
			<point x="44" y="757"/>
			<point x="26" y="745"/>
			<point x="26" y="720" type="curve" smooth="yes"/>
			<point x="26" y="707"/>
			<point x="31" y="692"/>
			<point x="58" y="667" type="curve" smooth="yes"/>
			<point x="98" y="630"/>
			<point x="138" y="594"/>
			<point x="180" y="557" type="curve"/>
		</contour>
		<component base="dotlessi"/>
	</outline>
</glyph>
<glyph name="iacute" format="1">
	<unicode hex="00ED"/>
	<advance width="297"/>
	<outline>
		<contour>
			<point x="98" y="576" type="curve"/>
			<point x="123" y="557" type="line"/>
			<point x="165" y="594"/>
			<point x="205" y="630"/>
			<point x="245" y="667" type="curve" smooth="yes"/>
			<point x="272" y="692"/>
			<point x="277" y="707"/>
			<point x="277" y="720" type="curve" smooth="yes"/>
			<point x="277" y="745"/>
			<point x="259" y="757"/>
			<point x="240" y="757" type="curve" smooth="yes"/>
			<point x="223" y="757"/>
			<point x="206" y="747"/>
			<point x="187" y="717" type="curve" smooth="yes"/>
			<point x="156" y="670"/>
			<point x="127" y="623"/>
		</contour>
		<component base="dotlessi"/>
	</outline>
</glyph>
<glyph name="icircumflex" format="1">
	<unicode hex="00EE"/>
	<advance width="297"/>
	<outline>
		<contour>
			<point x="276" y="546" type="line"/>
			<point x="299" y="567" type="line"/>
			<point x="167" y="743" type="line"/>
			<point x="135" y="743" type="line"/>
			<point x="3" y="567" type="line"/>
			<point x="26" y="546" type="line"/>
			<point x="193" y="699" type="line"/>
			<point x="109" y="699" type="line"/>
		</contour>
		<component base="dotlessi"/>
	</outline>
</glyph>
<glyph name="ntilde" format="1">
	<unicode hex="00F1"/>
	<advance width="605"/>
	<outline>
		<contour>
			<point x="140" y="586" type="curve"/>
			<point x="166" y="577" type="line"/>
			<point x="180" y="627"/>
			<point x="198" y="658"/>
			<point x="228" y="658" type="curve" smooth="yes"/>
			<point x="255" y="658"/>
			<point x="274" y="630"/>
			<point x="297" y="609" type="curve" smooth="yes"/>
			<point x="316" y="591"/>
			<point x="337" y="575"/>
			<point x="370" y="575" type="curve" smooth="yes"/>
			<point x="426" y="575"/>
			<point x="452" y="626"/>
			<point x="464" y="703" type="curve"/>
			<point x="438" y="712" type="line"/>
			<point x="424" y="662"/>
			<point x="406" y="631"/>
			<point x="376" y="631" type="curve" smooth="yes"/>
			<point x="349" y="631"/>
			<point x="330" y="659"/>
			<point x="307" y="680" type="curve" smooth="yes"/>
			<point x="287" y="698"/>
			<point x="267" y="714"/>
			<point x="234" y="714" type="curve" smooth="yes"/>
			<point x="179" y="714"/>
			<point x="151" y="663"/>
		</contour>
		<component base="n"/>
	</outline>
</glyph>
<glyph name="ograve" format="1">
	<unicode hex="00F2"/>
	<advance width="548"/>
	<outline>
		<contour>
			<point x="328" y="576" type="line"/>
			<point x="299" y="623"/>
			<point x="270" y="670"/>
			<point x="239" y="717" type="curve" smooth="yes"/>
			<point x="220" y="747"/>
			<point x="203" y="757"/>
			<point x="186" y="757" type="curve" smooth="yes"/>
			<point x="167" y="757"/>
			<point x="149" y="745"/>
			<point x="149" y="720" type="curve" smooth="yes"/>
			<point x="149" y="707"/>
			<point x="154" y="692"/>
			<point x="181" y="667" type="curve" smooth="yes"/>
			<point x="221" y="630"/>
			<point x="261" y="594"/>
			<point x="303" y="557" type="curve"/>
		</contour>
		<component base="o"/>
	</outline>
</glyph>
<glyph name="oacute" format="1">
	<unicode hex="00F3"/>
	<advance width="548"/>
	<outline>
		<contour>
			<point x="226" y="576" type="curve"/>
			<point x="251" y="557" type="line"/>
			<point x="293" y="594"/>
			<point x="333" y="630"/>
			<point x="373" y="667" type="curve" smooth="yes"/>
			<point x="400" y="692"/>
			<point x="405" y="707"/>
			<point x="405" y="720" type="curve" smooth="yes"/>
			<point x="405" y="745"/>
			<point x="387" y="757"/>
			<point x="368" y="757" type="curve" smooth="yes"/>
			<point x="351" y="757"/>
			<point x="334" y="747"/>
			<point x="315" y="717" type="curve" smooth="yes"/>
			<point x="284" y="670"/>
			<point x="255" y="623"/>
		</contour>
		<component base="o"/>
	</outline>
</glyph>
<glyph name="odieresis" format="1">
	<unicode hex="00F6"/>
	<advance width="548"/>
	<outline>
		<contour>
			<point x="378" y="597" type="curve" smooth="yes"/>
			<point x="410" y="597"/>
			<point x="436" y="621"/>
			<point x="436" y="653" type="curve" smooth="yes"/>
			<point x="436" y="685"/>
			<point x="410" y="709"/>
			<point x="378" y="709" type="curve" smooth="yes"/>
			<point x="346" y="709"/>
			<point x="319" y="685"/>
			<point x="319" y="653" type="curve" smooth="yes"/>
			<point x="319" y="621"/>
			<point x="346" y="597"/>
		</contour>
		<contour>
			<point x="170" y="597" type="curve" smooth="yes"/>
			<point x="202" y="597"/>
			<point x="229" y="621"/>
			<point x="229" y="653" type="curve" smooth="yes"/>
			<point x="229" y="685"/>
			<point x="202" y="709"/>
			<point x="170" y="709" type="curve" smooth="yes"/>
			<point x="138" y="709"/>
			<point x="112" y="685"/>
			<point x="112" y="653" type="curve" smooth="yes"/>
			<point x="112" y="621"/>
			<point x="138" y="597"/>
		</contour>
		<component base="o"/>
	</outline>
</glyph>
<glyph name="uacute" format="1">
	<unicode hex="00FA"/>
	<advance width="582"/>
	<outline>
		<contour>
			<point x="228" y="576" type="curve"/>
			<point x="253" y="557" type="line"/>
			<point x="295" y="594"/>
			<point x="335" y="630"/>
			<point x="375" y="667" type="curve" smooth="yes"/>
			<point x="402" y="692"/>
			<point x="407" y="707"/>
			<point x="407" y="720" type="curve" smooth="yes"/>
			<point x="407" y="745"/>
			<point x="389" y="757"/>
			<point x="370" y="757" type="curve" smooth="yes"/>
			<point x="353" y="757"/>
			<point x="336" y="747"/>
			<point x="317" y="717" type="curve" smooth="yes"/>
			<point x="286" y="670"/>
			<point x="257" y="623"/>
		</contour>
		<component base="u"/>
	</outline>
</glyph>
<glyph name="ucircumflex" format="1">
	<unicode hex="00FB"/>
	<advance width="582"/>
	<outline>
		<contour>
			<point x="406" y="546" type="line"/>
			<point x="429" y="567" type="line"/>
			<point x="297" y="743" type="line"/>
			<point x="265" y="743" type="line"/>
			<point x="133" y="567" type="line"/>
			<point x="156" y="546" type="line"/>
			<point x="323" y="699" type="line"/>
			<point x="239" y="699" type="line"/>
		</contour>
		<component base="u"/>
	</outline>
</glyph>
<glyph name="yacute" format="1">
	<unicode hex="00FD"/>
	<advance width="511"/>
	<outline>
		<contour>
			<point x="236" y="576" type="curve"/>
			<point x="261" y="557" type="line"/>
			<point x="303" y="594"/>
			<point x="343" y="630"/>
			<point x="383" y="667" type="curve" smooth="yes"/>
			<point x="410" y="692"/>
			<point x="415" y="707"/>
			<point x="415" y="720" type="curve" smooth="yes"/>
			<point x="415" y="745"/>
			<point x="397" y="757"/>
			<point x="378" y="757" type="curve" smooth="yes"/>
			<point x="361" y="757"/>
			<point x="344" y="747"/>
			<point x="325" y="717" type="curve" smooth="yes"/>
			<point x="294" y="670"/>
			<point x="265" y="623"/>
		</contour>
		<component base="y"/>
	</outline>
</glyph>
<glyph name="ydieresis" format="1">
	<unicode hex="00FF"/>
	<advance width="511"/>
	<outline>
		<contour>
			<point x="386" y="597" type="curve" smooth="yes"/>
			<point x="418" y="597"/>
			<point x="444" y="621"/>
			<point x="444" y="653" type="curve" smooth="yes"/>
			<point x="444" y="685"/>
			<point x="418" y="709"/>
			<point x="386" y="709" type="curve" smooth="yes"/>
			<point x="354" y="709"/>
			<point x="327" y="685"/>
			<point x="327" y="653" type="curve" smooth="yes"/>
			<point x="327" y="621"/>
			<point x="354" y="597"/>
		</contour>
		<contour>
			<point x="178" y="597" type="curve" smooth="yes"/>
			<point x="210" y="597"/>
			<point x="237" y="621"/>
			<point x="237" y="653" type="curve" smooth="yes"/>
			<point x="237" y="685"/>
			<point x="210" y="709"/>
			<point x="178" y="709" type="curve" smooth="yes"/>
			<point x="146" y="709"/>
			<point x="120" y="685"/>
			<point x="120" y="653" type="curve" smooth="yes"/>
			<point x="120" y="621"/>
			<point x="146" y="597"/>
		</contour>
		<component base="y"/>
	</outline>
</glyph>
<glyph name="Scaron" format="1">
	<unicode hex="0160"/>
	<advance width="510"/>
	<outline>
		<contour>
			<point x="156" y="867" type="line"/>
			<point x="133" y="847" type="line"/>
			<point x="233" y="730" type="line"/>
			<point x="307" y="730" type="line"/>
			<point x="407" y="847" type="line"/>
			<point x="384" y="867" type="line"/>
			<point x="228" y="751" type="line"/>
			<point x="312" y="751" type="line"/>
		</contour>
		<component base="S"/>
	</outline>
</glyph>
<glyph name="scaron" format="1">
	<unicode hex="0161"/>
	<advance width="433"/>
	<outline>
		<contour>
			<point x="112" y="737" type="line"/>
			<point x="88" y="718" type="line"/>
			<point x="189" y="571" type="line"/>
			<point x="263" y="571" type="line"/>
			<point x="364" y="718" type="line"/>
			<point x="340" y="737" type="line"/>
			<point x="184" y="594" type="line"/>
			<point x="268" y="594" type="line"/>
		</contour>
		<component base="s"/>
	</outline>
</glyph>
<glyph name="Ydieresis" format="1">
	<unicode hex="0178"/>
	<advance width="633"/>
	<outline>
		<contour>
			<point x="235" y="746" type="curve" smooth="yes"/>
			<point x="266" y="746"/>
			<point x="291" y="769"/>
			<point x="291" y="800" type="curve" smooth="yes"/>
			<point x="291" y="831"/>
			<point x="266" y="854"/>
			<point x="235" y="854" type="curve" smooth="yes"/>
			<point x="204" y="854"/>
			<point x="178" y="831"/>
			<point x="178" y="800" type="curve" smooth="yes"/>
			<point x="178" y="769"/>
			<point x="204" y="746"/>
		</contour>
		<contour>
			<point x="456" y="746" type="curve" smooth="yes"/>
			<point x="487" y="746"/>
			<point x="513" y="769"/>
			<point x="513" y="800" type="curve" smooth="yes"/>
			<point x="513" y="831"/>
			<point x="487" y="854"/>
			<point x="456" y="854" type="curve" smooth="yes"/>
			<point x="425" y="854"/>
			<point x="400" y="831"/>
			<point x="400" y="800" type="curve" smooth="yes"/>
			<point x="400" y="769"/>
			<point x="425" y="746"/>
		</contour>
		<component base="Y"/>
	</outline>
</glyph>
<glyph name="zcaron" format="1">
	<unicode hex="017E"/>
	<advance width="455"/>
	<outline>
		<contour>
			<point x="123" y="737" type="line"/>
			<point x="99" y="718" type="line"/>
			<point x="200" y="571" type="line"/>
			<point x="274" y="571" type="line"/>
			<point x="375" y="718" type="line"/>
			<point x="351" y="737" type="line"/>
			<point x="195" y="594" type="line"/>
			<point x="279" y="594" type="line"/>
		</contour>
		<component base="z"/>
	</outline>
</glyph>
<glyph name="circumflex" format="1">
	<unicode hex="02C6"/>
	<advance width="400"/>
	<outline>
		<contour>
			<point x="325" y="546" type="line"/>
			<point x="348" y="567" type="line"/>
			<point x="216" y="743" type="line"/>
			<point x="184" y="743" type="line"/>
			<point x="52" y="567" type="line"/>
			<point x="75" y="546" type="line"/>
			<point x="242" y="699" type="line"/>
			<point x="158" y="699" type="line"/>
		</contour>
	</outline>
</glyph>
<glyph name="caron" format="1">
	<unicode hex="02C7"/>
	<advance width="400"/>
	<outline>
		<contour>
			<point x="86" y="737" type="line"/>
			<point x="62" y="718" type="line"/>
			<point x="163" y="571" type="line"/>
			<point x="237" y="571" type="line"/>
			<point x="338" y="718" type="line"/>
			<point x="314" y="737" type="line"/>
			<point x="158" y="594" type="line"/>
			<point x="242" y="594" type="line"/>
		</contour>
	</outline>
</glyph>
<glyph name="macronmod" format="1">
	<unicode hex="02C9"/>
	<advance width="400"/>
	<outline>
		<contour>
			<point x="71" y="597" type="line"/>
			<point x="329" y="597" type="line"/>
			<point x="329" y="658" type="line"/>
			<point x="71" y="658" type="line"/>
		</contour>
	</outline>
</glyph>
<glyph name="dotaccent" format="1">
	<unicode hex="02D9"/>
	<advance width="400"/>
	<outline>
		<contour>
			<point x="200" y="590" type="curve" smooth="yes"/>
			<point x="237" y="590"/>
			<point x="266" y="616"/>
			<point x="266" y="653" type="curve" smooth="yes"/>
			<point x="266" y="690"/>
			<point x="237" y="716"/>
			<point x="200" y="716" type="curve" smooth="yes"/>
			<point x="163" y="716"/>
			<point x="134" y="690"/>
			<point x="134" y="653" type="curve" smooth="yes"/>
			<point x="134" y="616"/>
			<point x="163" y="590"/>
		</contour>
	</outline>
</glyph>
<glyph name="ring" format="1">
	<unicode hex="02DA"/>
	<advance width="400"/>
	<outline>
		<contour>
			<point x="200" y="589" type="curve" smooth="yes"/>
			<point x="163" y="589"/>
			<point x="143" y="620"/>
			<point x="143" y="651" type="curve" smooth="yes"/>
			<point x="143" y="682"/>
			<point x="164" y="712"/>
			<point x="200" y="712" type="curve" smooth="yes"/>
			<point x="237" y="712"/>
			<point x="257" y="682"/>
			<point x="257" y="651" type="curve" smooth="yes"/>
			<point x="257" y="620"/>
			<point x="236" y="589"/>
		</contour>
		<contour>
			<point x="200" y="550" type="curve" smooth="yes"/>
			<point x="253" y="550"/>
			<point x="304" y="588"/>
			<point x="304" y="651" type="curve" smooth="yes"/>
			<point x="304" y="716"/>
			<point x="253" y="751"/>
			<point x="200" y="751" type="curve" smooth="yes"/>
			<point x="147" y="751"/>
			<point x="96" y="713"/>
			<point x="96" y="651" type="curve" smooth="yes"/>
			<point x="96" y="586"/>
			<point x="147" y="550"/>
		</contour>
	</outline>
</glyph>
<glyph name="ogonek" format="1">
	<unicode hex="02DB"/>
	<advance width="400"/>
	<outline>
		<contour>
			<point x="99" y="-132" type="curve" smooth="yes"/>
			<point x="99" y="-187"/>
			<point x="138" y="-220"/>
			<point x="192" y="-220" type="curve" smooth="yes"/>
			<point x="227" y="-220"/>
			<point x="270" y="-207"/>
			<point x="293" y="-174" type="curve"/>
			<point x="280" y="-150" type="line"/>
			<point x="260" y="-162"/>
			<point x="240" y="-165"/>
			<point x="227" y="-165" type="curve" smooth="yes"/>
			<point x="189" y="-165"/>
			<point x="160" y="-140"/>
			<point x="160" y="-97" type="curve" smooth="yes"/>
			<point x="160" y="-57"/>
			<point x="185" y="-14"/>
			<point x="227" y="13" type="curve"/>
			<point x="199" y="13" type="line"/>
			<point x="146" y="-14"/>
			<point x="99" y="-71"/>
		</contour>
	</outline>
</glyph>
<glyph name="perthousand" format="1">
	<unicode hex="2030"/>
	<advance width="1195"/>
	<outline>
		<contour>
			<point x="141" y="452" type="curve" smooth="yes"/>
			<point x="141" y="596"/>
			<point x="175" y="626"/>
			<point x="210" y="626" type="curve" smooth="yes"/>
			<point x="245" y="626"/>
			<point x="277" y="595"/>
			<point x="277" y="452" type="curve" smooth="yes"/>
			<point x="277" y="309"/>
			<point x="245" y="278"/>
			<point x="210" y="278" type="curve" smooth="yes"/>
			<point x="175" y="278"/>
			<point x="141" y="309"/>
		</contour>
		<contour>
			<point x="210" y="660" type="curve" smooth="yes"/>
			<point x="139" y="660"/>
			<point x="70" y="598"/>
			<point x="70" y="452" type="curve" smooth="yes"/>
			<point x="70" y="307"/>
			<point x="139" y="245"/>
			<point x="210" y="245" type="curve" smooth="yes"/>
			<point x="280" y="245"/>
			<point x="348" y="307"/>
			<point x="348" y="452" type="curve" smooth="yes"/>
			<point x="348" y="598"/>
			<point x="280" y="660"/>
		</contour>
		<contour>
			<point x="583" y="198" type="curve" smooth="yes"/>
			<point x="583" y="342"/>
			<point x="617" y="372"/>
			<point x="652" y="372" type="curve" smooth="yes"/>
			<point x="687" y="372"/>
			<point x="719" y="341"/>
			<point x="719" y="198" type="curve" smooth="yes"/>
			<point x="719" y="55"/>
			<point x="687" y="24"/>
			<point x="652" y="24" type="curve" smooth="yes"/>
			<point x="617" y="24"/>
			<point x="583" y="55"/>
		</contour>
		<contour>
			<point x="652" y="406" type="curve" smooth="yes"/>
			<point x="581" y="406"/>
			<point x="512" y="344"/>
			<point x="512" y="198" type="curve" smooth="yes"/>
			<point x="512" y="53"/>
			<point x="581" y="-9"/>
			<point x="652" y="-9" type="curve" smooth="yes"/>
			<point x="722" y="-9"/>
			<point x="790" y="53"/>
			<point x="790" y="198" type="curve" smooth="yes"/>
			<point x="790" y="344"/>
			<point x="722" y="406"/>
		</contour>
		<contour>
			<point x="928" y="198" type="curve" smooth="yes"/>
			<point x="928" y="342"/>
			<point x="962" y="372"/>
			<point x="997" y="372" type="curve" smooth="yes"/>
			<point x="1032" y="372"/>
			<point x="1064" y="341"/>
			<point x="1064" y="198" type="curve" smooth="yes"/>
			<point x="1064" y="55"/>
			<point x="1032" y="24"/>
			<point x="997" y="24" type="curve" smooth="yes"/>
			<point x="962" y="24"/>
			<point x="928" y="55"/>
		</contour>
		<contour>
			<point x="997" y="406" type="curve" smooth="yes"/>
			<point x="926" y="406"/>
			<point x="857" y="344"/>
			<point x="857" y="198" type="curve" smooth="yes"/>
			<point x="857" y="53"/>
			<point x="926" y="-9"/>
			<point x="997" y="-9" type="curve" smooth="yes"/>
			<point x="1067" y="-9"/>
			<point x="1135" y="53"/>
			<point x="1135" y="198" type="curve" smooth="yes"/>
			<point x="1135" y="344"/>
			<point x="1067" y="406"/>
		</contour>
		<component base="fraction" xOffset="367"/>
	</outline>
</glyph>
<glyph name="cent.nostroke" format="1">
	<advance width="497"/>
	<outline>
		<contour>
			<point x="286" y="548" type="line"/>
			<point x="286" y="660" type="line"/>
			<point x="246" y="660" type="line"/>
			<point x="246" y="548" type="line"/>
		</contour>
		<contour>
			<point x="286" y="-45" type="line"/>
			<point x="286" y="97" type="line"/>
			<point x="246" y="97" type="line"/>
			<point x="246" y="-45" type="line"/>
		</contour>
		<component base="c" yOffset="78"/>
	</outline>
</glyph>
